# Nv = 40  Nvt = 0  Nvn = 40  Npoly = 60
# Exported from Wings 3D 2.2.4
mtllib SlugSat.mtl
o Part__Feature
#8 vertices, 12 faces
v -2.6358570e-2 4.5662347e-2 0.18388878
v -2.6358570e-2 5.0662347e-2 0.18388878
v -2.6358570e-2 4.5662347e-2 0.17388878
v -2.6358570e-2 5.0662347e-2 0.17388878
v 0.14864143 5.0662347e-2 0.18388878
v 0.14864143 4.5662347e-2 0.18388878
v 0.14864143 5.0662347e-2 0.17388878
v 0.14864143 4.5662347e-2 0.17388878
vn -0.40824829 -0.40824829 0.81649658
vn -0.81649658 0.40824829 0.40824829
vn -0.66666667 -0.66666667 -0.33333333
vn -0.33333333 0.66666667 -0.66666667
vn 0.33333333 0.66666667 0.66666667
vn 0.66666667 -0.66666667 0.33333333
vn 0.81649658 0.40824829 -0.40824829
vn 0.40824829 -0.40824829 -0.81649658
g Part__Feature_color_999999
usemtl color_999999
s 1
f 1//1 5//5 2//2
f 1//1 6//6 5//5
f 2//2 3//3 1//1
f 2//2 4//4 3//3
f 2//2 5//5 4//4
f 3//3 6//6 1//1
f 3//3 8//8 6//6
f 4//4 8//8 3//3
f 5//5 7//7 4//4
f 6//6 7//7 5//5
f 6//6 8//8 7//7
f 7//7 8//8 4//4
o Part__Feature003
#8 vertices, 12 faces
v 0.20346343 4.5662347e-2 3.97888878
v 0.20346343 5.0662347e-2 3.97888878
v 0.19346343 4.5662347e-2 3.97888878
v 0.19346343 5.0662347e-2 3.97888878
v 0.20346343 5.0662347e-2 0.22888878
v 0.20346343 4.5662347e-2 0.22888878
v 0.19346343 5.0662347e-2 0.22888878
v 0.19346343 4.5662347e-2 0.22888878
vn 0.66666667 -0.66666667 0.33333333
vn 0.33333333 0.66666667 0.66666667
vn -0.66666667 -0.33333333 0.66666667
vn -0.57735027 0.57735027 0.57735027
vn 0.81649658 0.40824829 -0.40824829
vn 0.40824829 -0.40824829 -0.81649658
vn -0.57735027 0.57735027 -0.57735027
vn -0.40824829 -0.81649658 -0.40824829
g Part__Feature003_color_999999
usemtl color_999999
s 1
f 9//9 13//13 10//10
f 9//9 14//14 13//13
f 9//9 16//16 14//14
f 10//10 11//11 9//9
f 10//10 12//12 11//11
f 10//10 15//15 12//12
f 11//11 16//16 9//9
f 12//12 15//15 11//11
f 13//13 15//15 10//10
f 14//14 15//15 13//13
f 14//14 16//16 15//15
f 15//15 16//16 11//11
o Part__Feature001
#8 vertices, 12 faces
v 0.24846343 4.5662347e-2 0.18406678
v 0.24846343 5.0662347e-2 0.18406678
v 0.24846343 4.5662347e-2 0.17406678
v 0.24846343 5.0662347e-2 0.17406678
v 0.42346343 5.0662347e-2 0.18406678
v 0.42346343 4.5662347e-2 0.18406678
v 0.42346343 5.0662347e-2 0.17406678
v 0.42346343 4.5662347e-2 0.17406678
vn -0.40824829 -0.40824829 0.81649658
vn -0.81649658 0.40824829 0.40824829
vn -0.66666667 -0.66666667 -0.33333333
vn -0.33333333 0.66666667 -0.66666667
vn 0.33333333 0.66666667 0.66666667
vn 0.66666667 -0.66666667 0.33333333
vn 0.81649658 0.40824829 -0.40824829
vn 0.40824829 -0.40824829 -0.81649658
g Part__Feature001_color_999999
usemtl color_999999
s 1
f 17//17 21//21 18//18
f 17//17 22//22 21//21
f 18//18 19//19 17//17
f 18//18 20//20 19//19
f 18//18 21//21 20//20
f 19//19 22//22 17//17
f 19//19 24//24 22//22
f 20//20 24//24 19//19
f 21//21 23//23 20//20
f 22//22 23//23 21//21
f 22//22 24//24 23//23
f 23//23 24//24 20//20
o Part__Feature002
#8 vertices, 12 faces
v 0.19364143 4.5662347e-2 -3.62093322
v 0.19364143 5.0662347e-2 -3.62093322
v 0.20364143 4.5662347e-2 -3.62093322
v 0.20364143 5.0662347e-2 -3.62093322
v 0.19364143 5.0662347e-2 0.12906678
v 0.19364143 4.5662347e-2 0.12906678
v 0.20364143 5.0662347e-2 0.12906678
v 0.20364143 4.5662347e-2 0.12906678
vn -0.66666667 -0.66666667 -0.33333333
vn -0.33333333 0.66666667 -0.66666667
vn 0.66666667 -0.33333333 -0.66666667
vn 0.57735027 0.57735027 -0.57735027
vn -0.81649658 0.40824829 0.40824829
vn -0.40824829 -0.40824829 0.81649658
vn 0.57735027 0.57735027 0.57735027
vn 0.40824829 -0.81649658 0.40824829
g Part__Feature002_color_999999
usemtl color_999999
s 1
f 25//25 29//29 26//26
f 25//25 30//30 29//29
f 25//25 32//32 30//30
f 26//26 27//27 25//25
f 26//26 28//28 27//27
f 26//26 31//31 28//28
f 27//27 32//32 25//25
f 28//28 31//31 27//27
f 29//29 31//31 26//26
f 30//30 31//31 29//29
f 30//30 32//32 31//31
f 31//31 32//32 27//27
o Part__Feature004
#8 vertices, 12 faces
v 0.14864143 -0.14745765 0.22888878
v 0.14864143 5.0662347e-2 0.12906678
v 0.14864143 -0.14745765 0.12906678
v 0.14864143 5.0662347e-2 0.22888878
v 0.24846343 -0.14745765 0.12906678
v 0.24846343 -0.14745765 0.22888878
v 0.24846343 5.0662347e-2 0.12906678
v 0.24846343 5.0662347e-2 0.22888878
vn -0.81649658 -0.40824829 0.40824829
vn -0.57735027 0.57735027 -0.57735027
vn -0.40824829 -0.81649658 -0.40824829
vn -0.40824829 0.40824829 0.81649658
vn 0.66666667 -0.33333333 -0.66666667
vn 0.33333333 -0.66666667 0.66666667
vn 0.57735027 0.57735027 -0.57735027
vn 0.66666667 0.66666667 0.33333333
g Part__Feature004_color_cad1ee
usemtl color_cad1ee
s 1
f 33//33 36//36 34//34
f 33//33 38//38 36//36
f 34//34 35//35 33//33
f 34//34 37//37 35//35
f 34//34 39//39 37//37
f 34//34 40//40 39//39
f 35//35 38//38 33//33
f 36//36 40//40 34//34
f 37//37 38//38 35//35
f 37//37 40//40 38//38
f 38//38 40//40 36//36
f 39//39 40//40 37//37
